G04*
G04 #@! TF.GenerationSoftware,Altium Limited,Altium Designer,22.3.1 (43)*
G04*
G04 Layer_Color=8388736*
%FSLAX25Y25*%
%MOIN*%
G70*
G04*
G04 #@! TF.SameCoordinates,1C7FBABB-5D2B-4B54-8B73-D7DE824473AF*
G04*
G04*
G04 #@! TF.FilePolarity,Negative*
G04*
G01*
G75*
%ADD16C,0.05721*%
%ADD17R,0.05721X0.05721*%
%ADD18C,0.03947*%
%ADD19R,0.03947X0.03947*%
%ADD20C,0.05918*%
%ADD21R,0.07300X0.07300*%
%ADD22C,0.07300*%
%ADD23R,0.08320X0.08320*%
%ADD24C,0.08320*%
%ADD25C,0.05249*%
%ADD26R,0.05249X0.05249*%
%ADD27R,0.08083X0.08083*%
%ADD28C,0.08083*%
%ADD29C,0.06312*%
%ADD30R,0.03947X0.03947*%
%ADD31C,0.06706*%
%ADD32R,0.06706X0.06706*%
%ADD33C,0.05524*%
%ADD34C,0.05800*%
D16*
X126000Y256000D02*
D03*
Y246000D02*
D03*
Y236000D02*
D03*
Y226000D02*
D03*
Y216000D02*
D03*
Y206000D02*
D03*
Y196000D02*
D03*
Y186000D02*
D03*
Y176000D02*
D03*
Y166000D02*
D03*
Y156000D02*
D03*
Y146000D02*
D03*
Y136000D02*
D03*
Y126000D02*
D03*
X95000D02*
D03*
Y136000D02*
D03*
Y146000D02*
D03*
Y156000D02*
D03*
Y166000D02*
D03*
Y176000D02*
D03*
Y186000D02*
D03*
Y196000D02*
D03*
Y206000D02*
D03*
Y216000D02*
D03*
Y226000D02*
D03*
Y236000D02*
D03*
Y246000D02*
D03*
D17*
Y256000D02*
D03*
D18*
X145500Y62579D02*
D03*
Y67500D02*
D03*
Y72421D02*
D03*
Y77342D02*
D03*
Y82264D02*
D03*
X146500Y249264D02*
D03*
Y244342D02*
D03*
Y239421D02*
D03*
Y234500D02*
D03*
Y229579D02*
D03*
Y224658D02*
D03*
X13079Y252000D02*
D03*
X146000Y150500D02*
D03*
Y145579D02*
D03*
X44815Y250000D02*
D03*
X49736D02*
D03*
X54658D02*
D03*
X59579D02*
D03*
X64500D02*
D03*
X69421D02*
D03*
D19*
X145500Y87185D02*
D03*
X146500Y219736D02*
D03*
X146000Y140657D02*
D03*
D20*
X64500Y119898D02*
D03*
Y132102D02*
D03*
D21*
X102500Y92500D02*
D03*
D22*
X92500D02*
D03*
X82500D02*
D03*
D23*
X43000Y21961D02*
D03*
D24*
Y32000D02*
D03*
Y42039D02*
D03*
D25*
X81500Y189370D02*
D03*
X71500D02*
D03*
X61500D02*
D03*
X51500D02*
D03*
X41500D02*
D03*
X31500D02*
D03*
X21500D02*
D03*
X11500D02*
D03*
Y220630D02*
D03*
X21500D02*
D03*
X31500D02*
D03*
X41500D02*
D03*
X51500D02*
D03*
X61500D02*
D03*
X71500D02*
D03*
D26*
X81500D02*
D03*
D27*
X36500Y154000D02*
D03*
D28*
X16500D02*
D03*
Y164000D02*
D03*
X36500D02*
D03*
D29*
X82000Y118500D02*
D03*
Y148500D02*
D03*
D30*
X18000Y252000D02*
D03*
X74343Y250000D02*
D03*
D31*
X148500Y195500D02*
D03*
Y185500D02*
D03*
Y175500D02*
D03*
X158500Y195500D02*
D03*
Y185500D02*
D03*
D32*
Y175500D02*
D03*
D33*
X63500Y17000D02*
D03*
Y47000D02*
D03*
X45000Y130500D02*
D03*
X15000D02*
D03*
X45000Y101000D02*
D03*
X15000D02*
D03*
X100000Y47000D02*
D03*
Y17000D02*
D03*
X45500Y74500D02*
D03*
X15500D02*
D03*
X82000Y47000D02*
D03*
Y17000D02*
D03*
X118000D02*
D03*
Y47000D02*
D03*
D34*
X101137Y118500D02*
D03*
X52000Y143000D02*
D03*
X76500Y176500D02*
D03*
X16500Y20000D02*
D03*
Y46500D02*
D03*
M02*
