G04*
G04 #@! TF.GenerationSoftware,Altium Limited,Altium Designer,22.3.1 (43)*
G04*
G04 Layer_Physical_Order=2*
G04 Layer_Color=16711680*
%FSLAX25Y25*%
%MOIN*%
G70*
G04*
G04 #@! TF.SameCoordinates,1C7FBABB-5D2B-4B54-8B73-D7DE824473AF*
G04*
G04*
G04 #@! TF.FilePolarity,Positive*
G04*
G01*
G75*
%ADD35C,0.01500*%
%ADD36C,0.04921*%
%ADD37R,0.04921X0.04921*%
%ADD38C,0.03347*%
%ADD39R,0.03347X0.03347*%
%ADD40C,0.05118*%
%ADD41R,0.06500X0.06500*%
%ADD42C,0.06500*%
%ADD43R,0.07520X0.07520*%
%ADD44C,0.07520*%
%ADD45C,0.04449*%
%ADD46R,0.04449X0.04449*%
%ADD47R,0.07284X0.07284*%
%ADD48C,0.07284*%
%ADD49C,0.05512*%
%ADD50R,0.03347X0.03347*%
%ADD51C,0.05906*%
%ADD52R,0.05906X0.05906*%
%ADD53C,0.04724*%
%ADD54C,0.05000*%
D35*
X101137Y118500D02*
X124172D01*
X136369Y131026D02*
X146000Y140657D01*
X136369Y130697D02*
Y131026D01*
X124172Y118500D02*
X136369Y130697D01*
X102500Y92500D02*
X140185D01*
X145500Y87185D01*
X144648Y14500D02*
X152000D01*
X146000Y114500D02*
X153500Y107000D01*
Y64421D02*
Y107000D01*
Y54579D02*
Y64421D01*
X145500Y72421D02*
X153500Y64421D01*
X145500Y62579D02*
X153500Y54579D01*
Y26879D02*
Y54579D01*
X92500Y92500D02*
X114500Y114500D01*
X146000D01*
X153003Y173003D02*
Y180003D01*
X158500Y185500D01*
X149343Y179975D02*
X153003Y183635D01*
X120105Y260011D02*
X140312D01*
X116095Y256000D02*
X120105Y260011D01*
X95000Y256000D02*
X116095D01*
X149343Y176343D02*
Y179975D01*
X148500Y175500D02*
X149343Y176343D01*
X140312Y260011D02*
X153003Y247319D01*
Y183635D02*
Y247319D01*
X126000Y146000D02*
X153003Y173003D01*
X52000Y143000D02*
Y152000D01*
X64500Y145500D02*
X95000Y176000D01*
X64500Y132102D02*
Y145500D01*
X52000Y152000D02*
X76500Y176500D01*
X152621Y26000D02*
X153500Y26879D01*
X139000Y26000D02*
X152621D01*
X118000Y47000D02*
X139000Y26000D01*
X37025Y144007D02*
X49912Y131121D01*
X37017Y144007D02*
X37025D01*
X25130Y155894D02*
X37017Y144007D01*
X73063Y216856D02*
X76838Y220630D01*
X49912Y128675D02*
X62798Y115789D01*
X73199D01*
X33648Y216856D02*
X73063D01*
X7726Y190934D02*
X33648Y216856D01*
X25130Y155894D02*
Y175740D01*
X7726Y180117D02*
Y190934D01*
X73832Y111168D02*
X92500Y92500D01*
X21692Y148276D02*
X58799Y111168D01*
X73832D01*
X7726Y180117D02*
X21692Y166150D01*
Y148276D02*
Y166150D01*
X76838Y220630D02*
X81500D01*
X49912Y128675D02*
Y131121D01*
X73199Y115789D02*
X87421Y130011D01*
X36162Y189370D02*
X39937Y193145D01*
X73063D01*
X76500Y189708D01*
X107201Y130011D02*
X111212Y126000D01*
X87421Y130011D02*
X107201D01*
X11500Y189370D02*
X25130Y175740D01*
X95000Y136000D02*
X110328D01*
X111000Y166000D02*
X126000D01*
X121989Y174339D02*
X125328Y171000D01*
X124339Y150011D02*
X125682D01*
X125328Y171000D02*
X126672D01*
X125682Y150011D02*
X137234Y161562D01*
X125682Y160011D02*
X130011Y164339D01*
X95000Y146000D02*
X109011Y160011D01*
X126672Y171000D02*
X130011Y167661D01*
X125328Y191000D02*
X126672D01*
X109011Y160011D02*
X125682D01*
X126672Y191000D02*
X134934Y199262D01*
X130011Y164339D02*
Y167661D01*
X137234Y161562D02*
Y210470D01*
X121989Y174339D02*
Y187661D01*
X110328Y136000D02*
X124339Y150011D01*
X121989Y187661D02*
X125328Y191000D01*
X95011Y181989D02*
X111000Y166000D01*
X83543Y181989D02*
X95011D01*
X76500Y189032D02*
X83543Y181989D01*
X76500Y189032D02*
Y189708D01*
X31500Y189370D02*
X36162D01*
X134934Y199262D02*
Y213708D01*
X116000Y186000D02*
X126000Y196000D01*
X95000Y186000D02*
X116000D01*
X72704Y145294D02*
X92756Y165345D01*
X94345D01*
X72704Y134496D02*
Y145294D01*
X94345Y165345D02*
X95000Y166000D01*
X111212Y126000D02*
X126000D01*
X137234Y210470D02*
X146500Y219736D01*
X145529Y224304D02*
X146147D01*
X146500Y224658D01*
X134934Y213708D02*
X145529Y224304D01*
X64500Y126291D02*
X72704Y134496D01*
X64500Y119898D02*
Y126291D01*
X100000Y31290D02*
X103912Y35203D01*
X102500Y63307D02*
Y92500D01*
X100000Y17000D02*
Y31290D01*
X103912Y35203D02*
Y61895D01*
X102500Y63307D02*
X103912Y61895D01*
X142148Y17000D02*
X144648Y14500D01*
X118000Y17000D02*
X142148D01*
X100000D02*
X118000D01*
X82000D02*
X100000D01*
X63500D02*
X82000D01*
X43000Y32000D02*
X58000Y17000D01*
X63500D01*
X31500Y20500D02*
X43000Y32000D01*
X15000Y20500D02*
X31500D01*
X12450Y23050D02*
X15000Y20500D01*
X15500Y60750D02*
Y74500D01*
X12450Y57700D02*
X15500Y60750D01*
X12450Y23050D02*
Y57700D01*
X136366Y236367D02*
Y239130D01*
X146500Y249264D01*
X126000Y226000D02*
X136366Y236367D01*
X160500Y151000D02*
Y173500D01*
Y23000D02*
Y151000D01*
X160000Y150500D02*
X160500Y151000D01*
X146000Y150500D02*
X160000D01*
X158500Y175500D02*
X160500Y173500D01*
X152000Y14500D02*
X160500Y23000D01*
X85274Y195726D02*
X95000Y186000D01*
X85274Y195726D02*
Y239068D01*
X74343Y250000D02*
X85274Y239068D01*
X73464Y269500D02*
X74343Y268621D01*
X29961Y269500D02*
X73464D01*
X74343Y250000D02*
Y268621D01*
X13079Y252500D02*
X14624Y254045D01*
Y254163D02*
X29961Y269500D01*
X13079Y252000D02*
Y252500D01*
X14624Y254045D02*
Y254163D01*
X11500Y249922D02*
X13079Y251500D01*
Y252000D01*
X11500Y220630D02*
Y249922D01*
X7066Y220066D02*
X10936D01*
X11500Y220630D01*
X4500Y217500D02*
X7066Y220066D01*
X4500Y166000D02*
X16500Y154000D01*
X4500Y166000D02*
Y217500D01*
X15617Y131117D02*
Y153117D01*
X16500Y154000D01*
X15000Y130500D02*
X15617Y131117D01*
X15000Y101000D02*
Y130500D01*
X15250Y74750D02*
Y100750D01*
Y74750D02*
X15500Y74500D01*
X15000Y101000D02*
X15250Y100750D01*
D36*
X126000Y256000D02*
D03*
Y246000D02*
D03*
Y236000D02*
D03*
Y226000D02*
D03*
Y216000D02*
D03*
Y206000D02*
D03*
Y196000D02*
D03*
Y186000D02*
D03*
Y176000D02*
D03*
Y166000D02*
D03*
Y156000D02*
D03*
Y146000D02*
D03*
Y136000D02*
D03*
Y126000D02*
D03*
X95000D02*
D03*
Y136000D02*
D03*
Y146000D02*
D03*
Y156000D02*
D03*
Y166000D02*
D03*
Y176000D02*
D03*
Y186000D02*
D03*
Y196000D02*
D03*
Y206000D02*
D03*
Y216000D02*
D03*
Y226000D02*
D03*
Y236000D02*
D03*
Y246000D02*
D03*
D37*
Y256000D02*
D03*
D38*
X145500Y62579D02*
D03*
Y67500D02*
D03*
Y72421D02*
D03*
Y77342D02*
D03*
Y82264D02*
D03*
X146500Y249264D02*
D03*
Y244342D02*
D03*
Y239421D02*
D03*
Y234500D02*
D03*
Y229579D02*
D03*
Y224658D02*
D03*
X13079Y252000D02*
D03*
X146000Y150500D02*
D03*
Y145579D02*
D03*
X44815Y250000D02*
D03*
X49736D02*
D03*
X54658D02*
D03*
X59579D02*
D03*
X64500D02*
D03*
X69421D02*
D03*
D39*
X145500Y87185D02*
D03*
X146500Y219736D02*
D03*
X146000Y140657D02*
D03*
D40*
X64500Y119898D02*
D03*
Y132102D02*
D03*
D41*
X102500Y92500D02*
D03*
D42*
X92500D02*
D03*
X82500D02*
D03*
D43*
X43000Y21961D02*
D03*
D44*
Y32000D02*
D03*
Y42039D02*
D03*
D45*
X81500Y189370D02*
D03*
X71500D02*
D03*
X61500D02*
D03*
X51500D02*
D03*
X41500D02*
D03*
X31500D02*
D03*
X21500D02*
D03*
X11500D02*
D03*
Y220630D02*
D03*
X21500D02*
D03*
X31500D02*
D03*
X41500D02*
D03*
X51500D02*
D03*
X61500D02*
D03*
X71500D02*
D03*
D46*
X81500D02*
D03*
D47*
X36500Y154000D02*
D03*
D48*
X16500D02*
D03*
Y164000D02*
D03*
X36500D02*
D03*
D49*
X82000Y118500D02*
D03*
Y148500D02*
D03*
D50*
X18000Y252000D02*
D03*
X74343Y250000D02*
D03*
D51*
X148500Y195500D02*
D03*
Y185500D02*
D03*
Y175500D02*
D03*
X158500Y195500D02*
D03*
Y185500D02*
D03*
D52*
Y175500D02*
D03*
D53*
X63500Y17000D02*
D03*
Y47000D02*
D03*
X45000Y130500D02*
D03*
X15000D02*
D03*
X45000Y101000D02*
D03*
X15000D02*
D03*
X100000Y47000D02*
D03*
Y17000D02*
D03*
X45500Y74500D02*
D03*
X15500D02*
D03*
X82000Y47000D02*
D03*
Y17000D02*
D03*
X118000D02*
D03*
Y47000D02*
D03*
D54*
X101137Y118500D02*
D03*
X52000Y143000D02*
D03*
X76500Y176500D02*
D03*
X16500Y20000D02*
D03*
Y46500D02*
D03*
M02*
