M48
;Layer_Color=9474304
;FILE_FORMAT=2:4
INCH,TZ
;TYPE=PLATED
T1F00S00C0.0197
T2F00S00C0.0276
T3F00S00C0.0280
T4F00S00C0.0307
T5F00S00C0.0327
T6F00S00C0.0335
T7F00S00C0.0354
T8F00S00C0.0433
T9F00S00C0.0450
T10F00S00C0.0500
%
T01
X14550Y6258
Y6750
Y7242
Y7734
Y8226
Y8719
X14600Y14066
Y14558
Y15050
X5466Y25000
X4974
X4482
X1800Y25200
X1308
X5958Y25000
X6450
X6942
X7434
X14650Y24926
Y24434
Y23942
Y23450
Y22958
Y22466
Y21974
T02
X6350Y1700
X8200
X10000
X11800
Y4700
X10000
X8200
X6350
X6450Y11990
Y13210
X4500Y13050
Y10100
X4550Y7450
X1550
X1500Y10100
Y13050
T03
X1650Y2000
Y4650
X10114Y11850
X7650Y17650
X5200Y14300
T04
X6150Y18937
X7150
X8150
X5150
X4150
X3150
X2150
X1150
Y22063
X2150
X3150
X4150
X5150
X6150
X7150
X8150
T05
X9500Y12600
Y13600
Y14600
Y15600
Y16600
Y17600
Y18600
Y19600
Y20600
X12600
Y19600
Y18600
Y17600
Y16600
Y15600
Y14600
Y13600
Y12600
Y21600
Y22600
Y23600
Y24600
Y25600
X9500
Y24600
Y23600
Y22600
Y21600
T06
X8200Y11850
Y14850
T07
X14850Y17550
Y18550
Y19550
X15850
Y18550
Y17550
T08
X1650Y15400
Y16400
X3650
Y15400
T09
X8250Y9250
X9250
X10250
T10
X4300Y2196
Y3200
Y4204
M30
