G04*
G04 #@! TF.GenerationSoftware,Altium Limited,Altium Designer,22.3.1 (43)*
G04*
G04 Layer_Color=65535*
%FSLAX25Y25*%
%MOIN*%
G70*
G04*
G04 #@! TF.SameCoordinates,1C7FBABB-5D2B-4B54-8B73-D7DE824473AF*
G04*
G04*
G04 #@! TF.FilePolarity,Positive*
G04*
G01*
G75*
%ADD10C,0.00787*%
%ADD11C,0.00600*%
%ADD12C,0.00984*%
%ADD13C,0.00500*%
%ADD14C,0.01000*%
%ADD15C,0.00800*%
D10*
X90815Y256000D02*
X90028D01*
X90815D01*
X68460Y121357D02*
X69195Y122101D01*
X69791Y122960D01*
X70232Y123907D01*
X70505Y124917D01*
X70602Y125958D01*
X70520Y127000D01*
X70261Y128013D01*
X69833Y128966D01*
X69248Y129833D01*
X68524Y130587D01*
X60476Y130548D02*
X59752Y129794D01*
X59167Y128927D01*
X58739Y127973D01*
X58480Y126961D01*
X58398Y125918D01*
X58495Y124877D01*
X58768Y123868D01*
X59209Y122920D01*
X59806Y122062D01*
X60540Y121318D01*
X52035Y21961D02*
X51248D01*
X52035D01*
X81894Y224823D02*
X81106D01*
X81894D01*
X9650Y149000D02*
X43350D01*
X9650D02*
Y169000D01*
X43350D01*
Y149000D02*
Y169000D01*
X82000Y143500D02*
Y144400D01*
Y122600D02*
Y123500D01*
Y143500D02*
X85000D01*
Y123500D02*
Y143500D01*
X79000Y123500D02*
X85000D01*
X79000D02*
Y143500D01*
X82000D01*
X163500Y170500D02*
Y200500D01*
X143500Y170500D02*
X163500D01*
X143500D02*
Y200500D01*
X163500D01*
X56000Y9500D02*
Y54500D01*
Y9500D02*
X71000D01*
Y54500D01*
X56000D02*
X71000D01*
X7500Y123000D02*
X52500D01*
Y138000D01*
X7500D02*
X52500D01*
X7500Y123000D02*
Y138000D01*
Y93500D02*
X52500D01*
Y108500D01*
X7500D02*
X52500D01*
X7500Y93500D02*
Y108500D01*
X107500Y9500D02*
Y54500D01*
X92500D02*
X107500D01*
X92500Y9500D02*
Y54500D01*
Y9500D02*
X107500D01*
X8000Y67000D02*
X53000D01*
Y82000D01*
X8000D02*
X53000D01*
X8000Y67000D02*
Y82000D01*
X89500Y9500D02*
Y54500D01*
X74500D02*
X89500D01*
X74500Y9500D02*
Y54500D01*
Y9500D02*
X89500D01*
X110500D02*
Y54500D01*
Y9500D02*
X125500D01*
Y54500D01*
X110500D02*
X125500D01*
D11*
X121300Y92500D02*
X120747Y93261D01*
X119853Y92970D01*
Y92030D01*
X120747Y91739D01*
X121300Y92500D01*
X71500Y100350D02*
X113500D01*
X71500Y81250D02*
Y100350D01*
Y81250D02*
X113500D01*
Y100350D01*
D12*
X45697Y153984D02*
X44959Y154410D01*
Y153558D01*
X45697Y153984D01*
D13*
X96250Y122280D02*
X124750D01*
X96250Y259720D02*
X124750D01*
X144319Y96240D02*
X145500Y94272D01*
X146681Y96240D01*
X144319D02*
X146681D01*
X140972Y56673D02*
X153571D01*
Y93090D01*
X140972D02*
X153571D01*
X140972Y56673D02*
Y93090D01*
X31740Y11528D02*
X49850D01*
X31740D02*
Y52472D01*
X49850D01*
Y11528D02*
Y52472D01*
X8016Y192500D02*
Y217500D01*
X84984Y192500D02*
Y217500D01*
X146500Y212650D02*
X147681Y210681D01*
X145319D02*
X146500Y212650D01*
X145319Y210681D02*
X147681D01*
X142366Y255169D02*
X164020D01*
X142366Y213831D02*
Y255169D01*
Y213831D02*
X164020D01*
Y255169D01*
X25087Y252000D02*
X27055Y253181D01*
X25087Y252000D02*
X27055Y250819D01*
Y253181D01*
X7173Y247866D02*
Y269520D01*
Y247866D02*
X23905D01*
Y269520D01*
X7173D02*
X23905D01*
X146000Y133571D02*
X147181Y131602D01*
X144819D02*
X146000Y133571D01*
X144819Y131602D02*
X147181D01*
X141866Y156405D02*
X163520D01*
X141866Y134752D02*
Y156405D01*
Y134752D02*
X163520D01*
Y156405D01*
X81429Y250000D02*
X83398Y251181D01*
X81429Y250000D02*
X83398Y248819D01*
Y251181D01*
X38909Y245866D02*
Y267520D01*
Y245866D02*
X80248D01*
Y267520D01*
X38909D02*
X80248D01*
D14*
X103001Y267499D02*
Y262501D01*
X104001Y261501D01*
X106000D01*
X107000Y262501D01*
Y267499D01*
X108999Y261501D02*
X110999D01*
X109999D01*
Y267499D01*
X108999Y266499D01*
X145000Y104499D02*
X143001D01*
X144001D01*
Y99501D01*
X143001Y98501D01*
X142001D01*
X141002Y99501D01*
X150998Y98501D02*
X147000D01*
X150998Y102500D01*
Y103499D01*
X149999Y104499D01*
X147999D01*
X147000Y103499D01*
X59000Y144098D02*
Y143098D01*
X60999Y141099D01*
X62999Y143098D01*
Y144098D01*
X60999Y141099D02*
Y138100D01*
X64998D02*
X66997D01*
X65998D01*
Y144098D01*
X64998Y143098D01*
X62001Y76004D02*
X66000D01*
X67999Y78003D01*
X66000Y80002D01*
X62001D01*
X67999Y82002D02*
X62001D01*
Y85001D01*
X63001Y86000D01*
X65000D01*
X66000Y85001D01*
Y82002D01*
Y84001D02*
X67999Y86000D01*
X63001Y88000D02*
X62001Y88999D01*
Y90999D01*
X63001Y91998D01*
X64000D01*
X65000Y90999D01*
Y89999D01*
Y90999D01*
X66000Y91998D01*
X66999D01*
X67999Y90999D01*
Y88999D01*
X66999Y88000D01*
X63001Y93998D02*
X62001Y94997D01*
Y96997D01*
X63001Y97996D01*
X64000D01*
X65000Y96997D01*
Y95997D01*
Y96997D01*
X66000Y97996D01*
X66999D01*
X67999Y96997D01*
Y94997D01*
X66999Y93998D01*
X31700Y62598D02*
Y58599D01*
X33699Y56600D01*
X35699Y58599D01*
Y62598D01*
X37698Y56600D02*
Y62598D01*
X40697D01*
X41697Y61598D01*
Y59599D01*
X40697Y58599D01*
X37698D01*
X39697D02*
X41697Y56600D01*
X47695Y62598D02*
X43696D01*
Y59599D01*
X45695Y60599D01*
X46695D01*
X47695Y59599D01*
Y57600D01*
X46695Y56600D01*
X44696D01*
X43696Y57600D01*
X7700Y234598D02*
Y229600D01*
X8700Y228600D01*
X10699D01*
X11699Y229600D01*
Y234598D01*
X17697Y228600D02*
X13698D01*
X17697Y232599D01*
Y233598D01*
X16697Y234598D01*
X14698D01*
X13698Y233598D01*
X14299Y177398D02*
X13299Y178398D01*
X11300D01*
X10300Y177398D01*
Y176399D01*
X11300Y175399D01*
X13299D01*
X14299Y174399D01*
Y173400D01*
X13299Y172400D01*
X11300D01*
X10300Y173400D01*
X16298Y172400D02*
X18297D01*
X17298D01*
Y178398D01*
X16298Y177398D01*
X69501Y152501D02*
Y158499D01*
X72500D01*
X73500Y157499D01*
Y155500D01*
X72500Y154500D01*
X69501D01*
X71501D02*
X73500Y152501D01*
X75499D02*
X77499D01*
X76499D01*
Y158499D01*
X75499Y157499D01*
X131501Y246658D02*
Y244658D01*
Y245658D01*
X136499D01*
X137499Y244658D01*
Y243659D01*
X136499Y242659D01*
X131501Y252656D02*
X132501Y250657D01*
X134500Y248657D01*
X136499D01*
X137499Y249657D01*
Y251656D01*
X136499Y252656D01*
X135500D01*
X134500Y251656D01*
Y248657D01*
X31999Y262000D02*
Y263999D01*
Y262999D01*
X27001D01*
X26001Y263999D01*
Y264999D01*
X27001Y265998D01*
X31999Y256002D02*
Y260000D01*
X29000D01*
X30000Y258001D01*
Y257001D01*
X29000Y256002D01*
X27001D01*
X26001Y257001D01*
Y259001D01*
X27001Y260000D01*
X134501Y191500D02*
Y189501D01*
Y190501D01*
X139499D01*
X140499Y189501D01*
Y188501D01*
X139499Y187502D01*
X140499Y196499D02*
X134501D01*
X137500Y193500D01*
Y197498D01*
X134001Y154000D02*
Y152001D01*
Y153001D01*
X138999D01*
X139999Y152001D01*
Y151001D01*
X138999Y150002D01*
X135001Y156000D02*
X134001Y156999D01*
Y158999D01*
X135001Y159998D01*
X136000D01*
X137000Y158999D01*
Y157999D01*
Y158999D01*
X138000Y159998D01*
X138999D01*
X139999Y158999D01*
Y156999D01*
X138999Y156000D01*
X73500Y244499D02*
X71501D01*
X72500D01*
Y239501D01*
X71501Y238501D01*
X70501D01*
X69501Y239501D01*
X75499Y238501D02*
X77499D01*
X76499D01*
Y244499D01*
X75499Y243499D01*
X60599Y62898D02*
X59599Y63898D01*
X57600D01*
X56600Y62898D01*
Y58900D01*
X57600Y57900D01*
X59599D01*
X60599Y58900D01*
X62598Y63898D02*
X66597D01*
Y62898D01*
X62598Y58900D01*
Y57900D01*
X12099Y146398D02*
X11099Y147398D01*
X9100D01*
X8100Y146398D01*
Y142400D01*
X9100Y141400D01*
X11099D01*
X12099Y142400D01*
X18097Y147398D02*
X16097Y146398D01*
X14098Y144399D01*
Y142400D01*
X15098Y141400D01*
X17097D01*
X18097Y142400D01*
Y143399D01*
X17097Y144399D01*
X14098D01*
X12099Y116898D02*
X11099Y117898D01*
X9100D01*
X8100Y116898D01*
Y112900D01*
X9100Y111900D01*
X11099D01*
X12099Y112900D01*
X18097Y117898D02*
X14098D01*
Y114899D01*
X16097Y115899D01*
X17097D01*
X18097Y114899D01*
Y112900D01*
X17097Y111900D01*
X15098D01*
X14098Y112900D01*
X97099Y62898D02*
X96099Y63898D01*
X94100D01*
X93100Y62898D01*
Y58900D01*
X94100Y57900D01*
X96099D01*
X97099Y58900D01*
X102097Y57900D02*
Y63898D01*
X99098Y60899D01*
X103097D01*
X12599Y90398D02*
X11599Y91398D01*
X9600D01*
X8600Y90398D01*
Y86400D01*
X9600Y85400D01*
X11599D01*
X12599Y86400D01*
X14598Y90398D02*
X15598Y91398D01*
X17597D01*
X18597Y90398D01*
Y89399D01*
X17597Y88399D01*
X16597D01*
X17597D01*
X18597Y87399D01*
Y86400D01*
X17597Y85400D01*
X15598D01*
X14598Y86400D01*
X79099Y62898D02*
X78099Y63898D01*
X76100D01*
X75100Y62898D01*
Y58900D01*
X76100Y57900D01*
X78099D01*
X79099Y58900D01*
X85097Y57900D02*
X81098D01*
X85097Y61899D01*
Y62898D01*
X84097Y63898D01*
X82098D01*
X81098Y62898D01*
X115099D02*
X114099Y63898D01*
X112100D01*
X111100Y62898D01*
Y58900D01*
X112100Y57900D01*
X114099D01*
X115099Y58900D01*
X117098Y57900D02*
X119097D01*
X118098D01*
Y63898D01*
X117098Y62898D01*
X14000Y11500D02*
X17999D01*
X14500Y55999D02*
X18499D01*
X16499Y57999D02*
Y54000D01*
X13000Y33500D02*
X14000Y32500D01*
X15999D01*
X16999Y33500D01*
Y37498D01*
X15999Y38498D01*
X14000D01*
X13000Y37498D01*
Y36499D01*
X14000Y35499D01*
X16999D01*
X18998Y38498D02*
Y34499D01*
X20997Y32500D01*
X22997Y34499D01*
Y38498D01*
D15*
X145502Y206832D02*
X146335Y205166D01*
X148001Y203500D01*
X149667D01*
X150500Y204333D01*
Y205999D01*
X149667Y206832D01*
X148834D01*
X148001Y205999D01*
Y203500D01*
X156335D02*
X155502Y204333D01*
Y205999D01*
X156335Y206832D01*
X157168D01*
X158001Y205999D01*
Y205166D01*
Y205999D01*
X158834Y206832D01*
X159667D01*
X160500Y205999D01*
Y204333D01*
X159667Y203500D01*
X160500Y167500D02*
Y169166D01*
Y168333D01*
X155502D01*
X156335Y167500D01*
X150500Y167999D02*
X145502D01*
X148001Y165500D01*
Y168832D01*
M02*
